<svg width="429" height="515" viewBox="0 0 429 515" fill="none" xmlns="http://www.w3.org/2000/svg">
<path opacity="0.25" d="M59.0006 161.2C-22.3994 292.6 -18.8994 442.3 66.9006 495.4C152.701 548.5 288.301 485.1 369.701 353.7C451.101 222.3 447.601 72.5998 361.801 19.4998C276.001 -33.6002 140.401 29.7998 59.0006 161.2Z" fill="url(#paint0_linear)"/>
<path d="M309.1 392.9L300.9 406.6L334.2 427C349.7 404.7 351.9 399.9 362.2 365.3L356.5 359.6L328.8 404.5L309.1 392.9Z" fill="#E38E76"/>
<path d="M260.701 354.9C260.001 354.2 259.001 354.1 258.201 354.7L242.801 364.8C241.901 365.4 241.601 366.7 242.201 367.6C242.301 367.7 242.401 367.8 242.501 367.9L281.801 407C282.601 407.8 283.901 407.8 284.701 407L297.601 393.7C298.401 392.9 298.401 391.6 297.601 390.8L260.701 354.9Z" fill="#989898"/>
<path d="M245.7 365.8L247.3 364.8C246.9 365.5 247.1 366.5 247.9 366.9C248.4 367.2 249 367.2 249.5 366.8L259.8 359.7C260.5 359.2 260.7 358.3 260.2 357.6C260 357.3 259.7 357.1 259.4 357L260.2 356.5C260.4 356.4 260.7 356.4 260.9 356.6L295.7 390.8C295.9 391 295.9 391.4 295.7 391.6L283.1 403.9C282.9 404.1 282.5 404.1 282.3 403.9L245.6 366.8C245.4 366.4 245.4 366.1 245.7 365.8Z" fill="white"/>
<path d="M292.901 390L282.201 400L249.801 368.1L262.701 359.7L292.901 390Z" fill="#E4E4E4"/>
<path d="M250.8 374.299C250.9 374.199 250.9 373.899 250.8 373.799L248.6 371.599C248.5 371.499 248.2 371.499 248.1 371.599C248 371.699 248 371.999 248.1 372.099L250.3 374.299C250.4 374.499 250.7 374.499 250.8 374.299Z" fill="#E5E5E5"/>
<path d="M254.601 377.5L252.401 375.3C252.301 375.2 252.001 375.2 251.901 375.3C251.801 375.4 251.801 375.7 251.901 375.8L254.101 378C254.201 378.1 254.501 378.1 254.601 378C254.701 377.9 254.701 377.7 254.601 377.5Z" fill="#E5E5E5"/>
<path d="M125.501 473.3C125.501 473.3 114.601 472.7 111.801 474.1C109.001 475.5 105.201 485.3 97.501 482.3C92.201 478 73.701 474.6 61.901 474.1C60.401 473.6 59.401 472.2 59.501 470.7C59.601 469.1 60.801 467.7 62.501 467.5C62.501 467.5 104.801 463.3 125.901 458.1C125.801 459.9 125.501 473.3 125.501 473.3Z" fill="#E5E5E5"/>
<path d="M302.002 485.3C260.902 480.9 228.102 456.8 201.102 456.6C188.802 469.9 122.602 473.5 122.602 473.5L122.802 458.7L184.202 437.2C194.602 433.6 205.602 432.2 216.502 433.1L289.702 446.7L302.002 485.3Z" fill="#666666"/>
<path d="M163.701 492C163.701 492 163.701 490.3 164.801 490C165.901 489.7 174.901 489.8 192.701 476.8C196.201 474.2 202.201 452.7 202.201 452.7L214.401 460.4C214.401 460.4 210.501 471.3 209.301 476.4C208.101 481.5 208.501 486.3 208.501 486.3C209.501 493.2 205.801 494.3 201.101 494.2C200.501 494.3 199.901 494.3 199.301 494.3H167.401C165.501 494.3 164.201 493.7 163.701 492Z" fill="#E5E5E5"/>
<path d="M329.701 473.9C293.801 518.5 249.801 429.8 243.101 410.6C241.801 427.1 213.301 464.7 213.301 464.7L199.301 459.8L228.501 385.8C231.101 380 238.001 377.4 243.801 380C244.901 380.5 246.001 381.2 246.901 382L289.801 429.8L297.901 439.3L329.701 473.9Z" fill="#808080"/>
<path d="M331.7 346.4C343.464 346.4 353 336.863 353 325.1C353 313.336 343.464 303.8 331.7 303.8C319.937 303.8 310.4 313.336 310.4 325.1C310.4 336.863 319.937 346.4 331.7 346.4Z" fill="#FFB8B8"/>
<path d="M358.802 363.1L333.002 367.7C333.702 357.7 336.202 351.2 325.502 340.1L344.802 333C347.302 343.7 353.802 353.2 358.802 363.1Z" fill="#F6CCCC"/>
<path d="M329.702 476.9L300.002 441.9L316.802 397.8C314.702 384.3 318.502 375.2 327.902 366.3C333.602 362.4 332.302 359.1 332.302 359.1L353.002 350.5C367.902 362.4 363.902 386.6 359.402 396.3C351.702 409.5 329.702 476.9 329.702 476.9Z" fill="#E8A995"/>
<path d="M297.201 410.3L290.301 424.7C290.301 424.7 317.901 442.8 325.401 442C332.901 441.2 366.801 378.2 359.501 366.4C356.401 361.5 348.501 361.2 344.401 366C340.301 370.9 320.001 420.9 320.101 422.6C315.901 418.4 297.201 410.3 297.201 410.3Z" fill="#E38E76"/>
<path d="M331.602 335.2C333.866 335.2 335.702 332.648 335.702 329.5C335.702 326.352 333.866 323.8 331.602 323.8C329.338 323.8 327.502 326.352 327.502 329.5C327.502 332.648 329.338 335.2 331.602 335.2Z" fill="#FFB7B7"/>
<path d="M310.402 315.099C310.202 315.099 310.102 321.699 310.002 321.899C310.002 325.399 310.502 328.799 311.602 332.099C312.302 334.199 313.202 336.199 314.402 338.099C315.702 340.199 317.402 341.999 318.902 343.899C319.902 345.299 320.802 346.799 321.702 348.199C321.902 348.599 322.202 348.999 322.502 349.299C323.502 350.299 325.602 350.099 326.902 349.799C328.402 349.399 329.802 348.499 331.002 347.499C333.702 345.199 335.702 342.199 337.502 339.099C338.502 337.299 341.302 332.799 342.202 330.899L335.702 309.399C335.602 309.399 310.402 315.099 310.402 315.099Z" fill="#F6CCCC"/>
<path d="M275.901 392.4C275.801 392.2 268.901 380.6 268.601 378.1C268.601 378.1 267.101 376.5 266.601 378.1C266.601 378.1 266.801 382.2 266.501 382.8C266.501 382.8 259.601 383.7 256.901 382.3C256.901 382.3 254.301 387.4 256.301 391.2C256.301 391.2 259.101 395.6 266.801 399.1L291.301 422.6L297.001 410.7L275.901 392.4Z" fill="#F6CCCC"/>
<path d="M308.801 393.199L284.601 375.699C284.601 375.699 281.101 366.799 279.001 365.399L270.701 364.699L296.601 389.999C296.601 389.999 299.801 391.799 296.601 394.499L294.701 396.499L302.701 403.999L308.801 393.199Z" fill="#F6CCCC"/>
<path d="M310.402 316.5L311.702 323.8C311.702 323.8 321.702 322.1 325.102 319.7C325.102 319.7 331.502 326.2 334.502 339.9C336.802 350.3 334.602 355.1 334.602 355.1L344.502 351.8C344.502 351.8 346.702 346.2 346.902 344C347.102 341.8 347.202 348.6 346.902 350.2C346.902 350.2 353.402 346.8 355.202 344L355.602 340.5L356.202 343.2L361.002 338.6L361.402 336.4L363.902 334C363.902 334 354.402 307 346.002 303.2C346.002 303.2 333.902 292.3 316.702 301.8C316.702 301.8 303.502 308.8 308.802 323.4L309.802 324.3L310.402 316.5Z" fill="#4D4D4D"/>
<defs>
<linearGradient id="paint0_linear" x1="26.7417" y1="455.836" x2="457.77" y2="133.699" gradientUnits="userSpaceOnUse">
<stop stop-color="#E8A995" stop-opacity="0.5"/>
<stop offset="1" stop-color="white" stop-opacity="0.5"/>
</linearGradient>
</defs>
</svg>
