<?xml version="1.0" encoding="utf-8"?>
<!-- Generator: Adobe Illustrator 22.0.1, SVG Export Plug-In . SVG Version: 6.00 Build 0)  -->
<svg xmlns="http://www.w3.org/2000/svg" xmlns:xlink="http://www.w3.org/1999/xlink" version="1.1" id="Layer_1" x="0px" y="0px" viewBox="0 0 100 100" style="enable-background:new 0 0 100 100;" xml:space="preserve">
<style type="text/css">
	.st0{fill:#F0F0F0;}
	.st1{fill:#D2D2D2;}
	.st2{fill:#FFFFFF;}
	.st3{fill:#E1E1E1;}
</style>
<g>
	<path class="st0" d="M60.4,0c6.2-0.1,6.4,9,0.6,9.7L61.2,39c2.3,0.2,4.3,1.5,5.7,3.3c1.8,2.2,2.9,5.2,2.9,7.9   c0.1,1.5-1.3,2.8-2.8,2.8H33.1c-1.5-0.1-2.8-1.3-2.8-2.8c0-2.7,1-5.7,2.9-7.9c1.4-1.8,3.3-3.1,5.7-3.3l0.1-29.3   C33.2,9,33.4-0.1,39.6,0H60.4z"/>
	<polygon class="st1" points="48.2,76.5 50,100 51.8,76.5 53.6,53 46.4,53  "/>
	<path class="st2" d="M66.8,42.3c-1.4-1.8-3.3-3.1-5.7-3.3L61.1,9.7C66.8,9,66.6-0.1,60.4,0H50v53h16.9c1.5-0.1,2.8-1.3,2.8-2.8   C69.7,47.5,68.7,44.5,66.8,42.3z"/>
	<polygon class="st3" points="50,53 50,100 51.8,76.5 53.6,53  "/>
</g>
</svg>
